<svg width="641" height="120" viewBox="0 0 641 120" fill="none" xmlns="http://www.w3.org/2000/svg">
<g clip-path="url(#clip0_2150_52363)">
<path d="M1.13084e-05 27.66C1.26675e-05 19.8871 8.47972 15.0859 15.145 19.0851L40.2899 34.1721C46.314 37.7865 50 44.2967 50 51.3219V68.6743C50 75.6996 46.314 82.2097 40.2899 85.8242L15.1449 100.911C8.47969 104.91 -1.359e-06 100.109 0 92.3362L1.13084e-05 27.66Z" fill="#FA776C"/>
<path d="M103.852 1.74656e-05C109.148 1.85911e-05 111.847 6.362 108.166 10.1701L94.8931 23.9004C91.1248 27.7987 85.9352 30 80.5134 30H55.5366C51.9117 30 48.355 29.0148 45.2467 27.1498L18.5718 11.1449C13.3537 8.01406 15.5735 -1.2931e-06 21.6588 0L103.852 1.74656e-05Z" fill="#624CF5"/>
<path d="M103.852 120C109.148 120 111.847 113.638 108.166 109.83L94.8931 96.0995C91.1248 92.2013 85.9353 90 80.5134 90H55.5366C51.9117 90 48.355 90.9851 45.2467 92.8501L18.5718 108.855C13.3537 111.986 15.5735 120 21.6588 120H103.852Z" fill="#624CF5"/>
<path d="M86 60C86 51.7157 79.2843 45 71 45C62.7157 45 56 51.7157 56 60C56 68.2843 62.7157 75 71 75C79.2843 75 86 68.2843 86 60Z" fill="#FA776C"/>
<path d="M147.875 91.9991V22.9082H194.43V34.9519H162.482V51.4149H192.035V63.4586H162.482V79.9554H194.565V91.9991H147.875ZM257.883 40.1809L239.767 91.9991H223.574L205.458 40.1809H220.639L231.401 77.2566H231.941L242.669 40.1809H257.883ZM290.983 93.0112C285.653 93.0112 281.065 91.9316 277.219 89.7725C273.395 87.591 270.449 84.5098 268.38 80.5289C266.311 76.5256 265.276 71.7914 265.276 66.3262C265.276 60.9959 266.311 56.3179 268.38 52.2921C270.449 48.2663 273.362 45.1288 277.118 42.8798C280.896 40.6307 285.327 39.5062 290.409 39.5062C293.828 39.5062 297.01 40.0572 299.957 41.1593C302.925 42.2388 305.512 43.8694 307.716 46.0509C309.942 48.2325 311.674 50.9764 312.911 54.2825C314.148 57.5661 314.767 61.412 314.767 65.8201V69.7672H271.011V60.861H301.239C301.239 58.7918 300.789 56.9589 299.889 55.362C298.99 53.7652 297.741 52.517 296.145 51.6174C294.57 50.6952 292.737 50.2342 290.646 50.2342C288.464 50.2342 286.53 50.7402 284.843 51.7523C283.179 52.7419 281.874 54.0801 280.93 55.7669C279.985 57.4312 279.502 59.2866 279.479 61.3333V69.8009C279.479 72.3649 279.951 74.5802 280.896 76.4469C281.863 78.3136 283.224 79.753 284.978 80.7651C286.732 81.7772 288.813 82.2832 291.219 82.2832C292.816 82.2832 294.278 82.0583 295.605 81.6085C296.932 81.1587 298.067 80.4839 299.012 79.5843C299.957 78.6847 300.676 77.5827 301.171 76.2782L314.463 77.1553C313.788 80.349 312.405 83.1378 310.314 85.5218C308.244 87.8833 305.568 89.7276 302.284 91.0545C299.023 92.3589 295.256 93.0112 290.983 93.0112ZM342.317 62.0417V91.9991H327.945V40.1809H341.642V49.3233H342.249C343.396 46.3096 345.319 43.9256 348.018 42.1713C350.717 40.3946 353.989 39.5062 357.835 39.5062C361.434 39.5062 364.571 40.2934 367.247 41.8677C369.924 43.442 372.004 45.6911 373.489 48.6149C374.973 51.5161 375.715 54.9797 375.715 59.0055V91.9991H361.344V61.5694C361.366 58.3982 360.556 55.9243 358.915 54.1475C357.273 52.3483 355.013 51.4487 352.134 51.4487C350.2 51.4487 348.49 51.8647 347.006 52.6969C345.544 53.529 344.397 54.7435 343.565 56.3404C342.755 57.9147 342.339 59.8152 342.317 62.0417ZM418.404 40.1809V50.9764H387.198V40.1809H418.404ZM394.283 27.7661H408.654V76.0758C408.654 77.4027 408.857 78.4373 409.262 79.1795C409.666 79.8992 410.229 80.4052 410.948 80.6976C411.691 80.99 412.545 81.1362 413.512 81.1362C414.187 81.1362 414.862 81.0799 415.536 80.9675C416.211 80.8326 416.728 80.7313 417.088 80.6639L419.349 91.3581C418.629 91.583 417.617 91.8417 416.312 92.134C415.008 92.4489 413.422 92.6401 411.556 92.7076C408.092 92.8425 405.056 92.3814 402.447 91.3244C399.861 90.2673 397.848 88.6255 396.408 86.399C394.969 84.1724 394.26 81.3611 394.283 77.965V27.7661ZM447.05 22.9082V91.9991H432.679V22.9082H447.05ZM485.775 93.0112C480.535 93.0112 476.003 91.8979 472.18 89.6713C468.379 87.4223 465.444 84.2961 463.375 80.2928C461.306 76.267 460.271 71.6002 460.271 66.2924C460.271 60.9397 461.306 56.2616 463.375 52.2583C465.444 48.2325 468.379 45.1063 472.18 42.8798C476.003 40.6307 480.535 39.5062 485.775 39.5062C491.016 39.5062 495.536 40.6307 499.337 42.8798C503.161 45.1063 506.107 48.2325 508.176 52.2583C510.245 56.2616 511.28 60.9397 511.28 66.2924C511.28 71.6002 510.245 76.267 508.176 80.2928C506.107 84.2961 503.161 87.4223 499.337 89.6713C495.536 91.8979 491.016 93.0112 485.775 93.0112ZM485.843 81.8784C488.227 81.8784 490.217 81.2036 491.814 79.8542C493.411 78.4823 494.614 76.6156 495.424 74.2541C496.256 71.8926 496.672 69.2049 496.672 66.1912C496.672 63.1775 496.256 60.4899 495.424 58.1284C494.614 55.7669 493.411 53.9001 491.814 52.5282C490.217 51.1563 488.227 50.4703 485.843 50.4703C483.436 50.4703 481.412 51.1563 479.77 52.5282C478.151 53.9001 476.925 55.7669 476.093 58.1284C475.284 60.4899 474.879 63.1775 474.879 66.1912C474.879 69.2049 475.284 71.8926 476.093 74.2541C476.925 76.6156 478.151 78.4823 479.77 79.8542C481.412 81.2036 483.436 81.8784 485.843 81.8784ZM547.837 93.0112C542.597 93.0112 538.065 91.8979 534.242 89.6713C530.441 87.4223 527.506 84.2961 525.437 80.2928C523.367 76.267 522.333 71.6002 522.333 66.2924C522.333 60.9397 523.367 56.2616 525.437 52.2583C527.506 48.2325 530.441 45.1063 534.242 42.8798C538.065 40.6307 542.597 39.5062 547.837 39.5062C553.077 39.5062 557.598 40.6307 561.399 42.8798C565.222 45.1063 568.169 48.2325 570.238 52.2583C572.307 56.2616 573.341 60.9397 573.341 66.2924C573.341 71.6002 572.307 76.267 570.238 80.2928C568.169 84.2961 565.222 87.4223 561.399 89.6713C557.598 91.8979 553.077 93.0112 547.837 93.0112ZM547.905 81.8784C550.289 81.8784 552.279 81.2036 553.876 79.8542C555.473 78.4823 556.676 76.6156 557.486 74.2541C558.318 71.8926 558.734 69.2049 558.734 66.1912C558.734 63.1775 558.318 60.4899 557.486 58.1284C556.676 55.7669 555.473 53.9001 553.876 52.5282C552.279 51.1563 550.289 50.4703 547.905 50.4703C545.498 50.4703 543.474 51.1563 541.832 52.5282C540.213 53.9001 538.987 55.7669 538.155 58.1284C537.345 60.4899 536.94 63.1775 536.94 66.1912C536.94 69.2049 537.345 71.8926 538.155 74.2541C538.987 76.6156 540.213 78.4823 541.832 79.8542C543.474 81.2036 545.498 81.8784 547.905 81.8784ZM586.486 111.431V40.1809H600.655V48.8848H601.296C601.926 47.4903 602.837 46.0734 604.029 44.634C605.243 43.1722 606.818 41.9577 608.752 40.9906C610.709 40.001 613.138 39.5062 616.039 39.5062C619.817 39.5062 623.303 40.4958 626.497 42.475C629.691 44.4316 632.243 47.3891 634.155 51.3475C636.067 55.2833 637.022 60.22 637.022 66.1575C637.022 71.9375 636.089 76.818 634.222 80.7988C632.378 84.7571 629.859 87.7596 626.666 89.8063C623.494 91.8304 619.941 92.8425 616.005 92.8425C613.216 92.8425 610.843 92.3814 608.887 91.4593C606.953 90.5372 605.367 89.379 604.13 87.9845C602.893 86.5676 601.948 85.1395 601.296 83.7001H600.858V111.431H586.486ZM600.554 66.09C600.554 69.1712 600.981 71.8588 601.836 74.1529C602.691 76.4469 603.928 78.2349 605.547 79.5169C607.166 80.7763 609.134 81.4061 611.451 81.4061C613.79 81.4061 615.769 80.7651 617.388 79.4831C619.008 78.1787 620.233 76.3794 621.065 74.0854C621.92 71.7689 622.347 69.1037 622.347 66.09C622.347 63.0988 621.931 60.4674 621.099 58.1958C620.267 55.9243 619.041 54.1475 617.422 52.8656C615.803 51.5836 613.812 50.9426 611.451 50.9426C609.112 50.9426 607.133 51.5611 605.513 52.7981C603.916 54.0351 602.691 55.7893 601.836 58.0609C600.981 60.3324 600.554 63.0088 600.554 66.09Z" fill="white"/>
</g>
<defs>
<clipPath id="clip0_2150_52363">
<rect width="641" height="120" fill="white"/>
</clipPath>
</defs>
</svg>
