<svg width="641" height="120" viewBox="0 0 641 120" fill="none" xmlns="http://www.w3.org/2000/svg">
<path d="M1.13084e-05 27.66C1.26675e-05 19.8871 8.47972 15.0859 15.145 19.0851L40.2899 34.1721C46.314 37.7865 50 44.2967 50 51.3219V68.6743C50 75.6996 46.314 82.2097 40.2899 85.8242L15.1449 100.911C8.47969 104.91 -1.359e-06 100.109 0 92.3362L1.13084e-05 27.66Z" fill="#FA776C"/>
<path d="M103.855 1.74656e-05C109.151 1.85911e-05 111.85 6.362 108.169 10.1701L94.896 23.9004C91.1277 27.7987 85.9381 30 80.5163 30H55.5395C51.9146 30 48.3579 29.0148 45.2496 27.1498L18.5747 11.1449C13.3566 8.01406 15.5764 -1.2931e-06 21.6617 0L103.855 1.74656e-05Z" fill="#624CF5"/>
<path d="M103.855 120C109.151 120 111.85 113.638 108.169 109.83L94.896 96.0995C91.1277 92.2013 85.9382 90 80.5163 90H55.5395C51.9146 90 48.3579 90.9851 45.2496 92.8501L18.5747 108.855C13.3566 111.986 15.5764 120 21.6617 120H103.855Z" fill="#624CF5"/>
<path d="M86 60C86 51.7157 79.2843 45 71 45C62.7157 45 56 51.7157 56 60C56 68.2843 62.7157 75 71 75C79.2843 75 86 68.2843 86 60Z" fill="#FA776C"/>
<path d="M147.872 92V22.9091H194.427V34.9528H162.479V51.4158H192.032V63.4595H162.479V79.9563H194.562V92H147.872ZM257.88 40.1818L239.764 92H223.571L205.455 40.1818H220.636L231.398 77.2575H231.938L242.666 40.1818H257.88ZM290.98 93.0121C285.65 93.0121 281.062 91.9325 277.216 89.7734C273.392 87.5919 270.446 84.5107 268.377 80.5298C266.308 76.5265 265.273 71.7923 265.273 66.3271C265.273 60.9968 266.308 56.3188 268.377 52.293C270.446 48.2672 273.359 45.1297 277.115 42.8807C280.893 40.6316 285.324 39.5071 290.406 39.5071C293.825 39.5071 297.007 40.0581 299.954 41.1602C302.922 42.2397 305.509 43.8703 307.713 46.0518C309.939 48.2334 311.671 50.9773 312.908 54.2834C314.145 57.567 314.764 61.4129 314.764 65.821V69.7681H271.008V60.8619H301.236C301.236 58.7927 300.786 56.9598 299.886 55.3629C298.987 53.7661 297.738 52.5179 296.142 51.6183C294.567 50.6961 292.734 50.2351 290.643 50.2351C288.461 50.2351 286.527 50.7411 284.84 51.7532C283.176 52.7428 281.871 54.081 280.927 55.7678C279.982 57.4321 279.499 59.2875 279.476 61.3342V69.8018C279.476 72.3658 279.948 74.5811 280.893 76.4478C281.86 78.3145 283.221 79.7539 284.975 80.766C286.729 81.7781 288.81 82.2841 291.216 82.2841C292.813 82.2841 294.275 82.0592 295.602 81.6094C296.929 81.1596 298.064 80.4848 299.009 79.5852C299.954 78.6856 300.673 77.5836 301.168 76.2791L314.46 77.1562C313.785 80.3499 312.402 83.1387 310.311 85.5227C308.241 87.8842 305.565 89.7285 302.281 91.0554C299.02 92.3598 295.253 93.0121 290.98 93.0121ZM342.314 62.0426V92H327.942V40.1818H341.639V49.3242H342.246C343.393 46.3105 345.316 43.9265 348.015 42.1722C350.714 40.3955 353.986 39.5071 357.832 39.5071C361.431 39.5071 364.568 40.2943 367.244 41.8686C369.921 43.4429 372.001 45.692 373.486 48.6158C374.97 51.517 375.712 54.9806 375.712 59.0064V92H361.341V61.5703C361.363 58.3991 360.553 55.9252 358.912 54.1484C357.27 52.3492 355.01 51.4496 352.131 51.4496C350.197 51.4496 348.487 51.8656 347.003 52.6978C345.541 53.5299 344.394 54.7444 343.562 56.3413C342.752 57.9156 342.336 59.8161 342.314 62.0426ZM418.401 40.1818V50.9773H387.195V40.1818H418.401ZM394.28 27.767H408.651V76.0767C408.651 77.4036 408.854 78.4382 409.259 79.1804C409.663 79.9001 410.226 80.4061 410.945 80.6985C411.688 80.9909 412.542 81.1371 413.509 81.1371C414.184 81.1371 414.859 81.0808 415.533 80.9684C416.208 80.8335 416.725 80.7322 417.085 80.6648L419.346 91.359C418.626 91.5839 417.614 91.8426 416.309 92.1349C415.005 92.4498 413.419 92.641 411.553 92.7085C408.089 92.8434 405.053 92.3823 402.444 91.3253C399.858 90.2682 397.845 88.6264 396.405 86.3999C394.966 84.1733 394.257 81.362 394.28 77.9659V27.767ZM447.047 22.9091V92H432.676V22.9091H447.047ZM485.772 93.0121C480.532 93.0121 476 91.8988 472.177 89.6722C468.376 87.4232 465.441 84.297 463.372 80.2937C461.303 76.2679 460.268 71.6011 460.268 66.2933C460.268 60.9406 461.303 56.2625 463.372 52.2592C465.441 48.2334 468.376 45.1072 472.177 42.8807C476 40.6316 480.532 39.5071 485.772 39.5071C491.013 39.5071 495.533 40.6316 499.334 42.8807C503.158 45.1072 506.104 48.2334 508.173 52.2592C510.242 56.2625 511.277 60.9406 511.277 66.2933C511.277 71.6011 510.242 76.2679 508.173 80.2937C506.104 84.297 503.158 87.4232 499.334 89.6722C495.533 91.8988 491.013 93.0121 485.772 93.0121ZM485.84 81.8793C488.224 81.8793 490.214 81.2045 491.811 79.8551C493.408 78.4832 494.611 76.6165 495.421 74.255C496.253 71.8935 496.669 69.2058 496.669 66.1921C496.669 63.1784 496.253 60.4908 495.421 58.1293C494.611 55.7678 493.408 53.901 491.811 52.5291C490.214 51.1572 488.224 50.4712 485.84 50.4712C483.433 50.4712 481.409 51.1572 479.767 52.5291C478.148 53.901 476.922 55.7678 476.09 58.1293C475.281 60.4908 474.876 63.1784 474.876 66.1921C474.876 69.2058 475.281 71.8935 476.09 74.255C476.922 76.6165 478.148 78.4832 479.767 79.8551C481.409 81.2045 483.433 81.8793 485.84 81.8793ZM547.834 93.0121C542.594 93.0121 538.062 91.8988 534.239 89.6722C530.438 87.4232 527.503 84.297 525.434 80.2937C523.364 76.2679 522.33 71.6011 522.33 66.2933C522.33 60.9406 523.364 56.2625 525.434 52.2592C527.503 48.2334 530.438 45.1072 534.239 42.8807C538.062 40.6316 542.594 39.5071 547.834 39.5071C553.074 39.5071 557.595 40.6316 561.396 42.8807C565.219 45.1072 568.166 48.2334 570.235 52.2592C572.304 56.2625 573.338 60.9406 573.338 66.2933C573.338 71.6011 572.304 76.2679 570.235 80.2937C568.166 84.297 565.219 87.4232 561.396 89.6722C557.595 91.8988 553.074 93.0121 547.834 93.0121ZM547.902 81.8793C550.286 81.8793 552.276 81.2045 553.873 79.8551C555.47 78.4832 556.673 76.6165 557.483 74.255C558.315 71.8935 558.731 69.2058 558.731 66.1921C558.731 63.1784 558.315 60.4908 557.483 58.1293C556.673 55.7678 555.47 53.901 553.873 52.5291C552.276 51.1572 550.286 50.4712 547.902 50.4712C545.495 50.4712 543.471 51.1572 541.829 52.5291C540.21 53.901 538.984 55.7678 538.152 58.1293C537.342 60.4908 536.937 63.1784 536.937 66.1921C536.937 69.2058 537.342 71.8935 538.152 74.255C538.984 76.6165 540.21 78.4832 541.829 79.8551C543.471 81.2045 545.495 81.8793 547.902 81.8793ZM586.483 111.432V40.1818H600.652V48.8857H601.293C601.923 47.4912 602.834 46.0743 604.026 44.6349C605.24 43.1731 606.815 41.9586 608.749 40.9915C610.706 40.0019 613.135 39.5071 616.036 39.5071C619.814 39.5071 623.3 40.4967 626.494 42.4759C629.688 44.4325 632.24 47.39 634.152 51.3484C636.064 55.2842 637.019 60.2209 637.019 66.1584C637.019 71.9384 636.086 76.8189 634.219 80.7997C632.375 84.758 629.856 87.7605 626.663 89.8072C623.491 91.8313 619.938 92.8434 616.002 92.8434C613.213 92.8434 610.84 92.3823 608.884 91.4602C606.95 90.5381 605.364 89.3799 604.127 87.9854C602.89 86.5685 601.945 85.1404 601.293 83.701H600.855V111.432H586.483ZM600.551 66.0909C600.551 69.1721 600.978 71.8597 601.833 74.1538C602.688 76.4478 603.925 78.2358 605.544 79.5178C607.163 80.7772 609.131 81.407 611.448 81.407C613.787 81.407 615.766 80.766 617.385 79.484C619.005 78.1796 620.23 76.3803 621.062 74.0863C621.917 71.7698 622.344 69.1046 622.344 66.0909C622.344 63.0997 621.928 60.4683 621.096 58.1967C620.264 55.9252 619.038 54.1484 617.419 52.8665C615.8 51.5845 613.809 50.9435 611.448 50.9435C609.109 50.9435 607.13 51.562 605.51 52.799C603.913 54.036 602.688 55.7902 601.833 58.0618C600.978 60.3333 600.551 63.0097 600.551 66.0909Z" fill="black"/>
</svg>
